<svg width="82" height="130" viewBox="0 0 82 130" fill="none" xmlns="http://www.w3.org/2000/svg">
<path fill-rule="evenodd" clip-rule="evenodd" d="M37.3415 33.1919C39.5116 31.209 42.798 31.2085 44.9687 33.1908L75.5485 61.1165L67.9225 69.7932L41.1568 45.3506L14.0799 70.0917L6.45149 61.4171L37.3415 33.1919Z" fill="#1CC73D"/>
<path fill-rule="evenodd" clip-rule="evenodd" d="M37.3421 2.4816C39.5123 0.498962 42.7979 0.498973 44.9682 2.48163L75.5485 30.4186L67.9224 39.0988L41.1551 14.6453L14.0776 39.3819L6.45149 30.7016L37.3421 2.4816Z" fill="#1CC73D"/>
<path d="M79.6945 89.7329V111.814H64.982V123.878H79.433C80.8472 123.878 82 125.013 82 126.405V128.43H42.4023V123.878H59.6699V111.814H44.7197V87.2054H77.1275C78.5417 87.2054 79.6945 88.3405 79.6945 89.7329ZM50.0794 107.168H74.3348V94.3784C74.3348 92.9859 73.182 91.8509 71.7678 91.8509H50.0794V107.168Z" fill="#1CC73D"/>
<path d="M1.52588e-05 107.8V103.435H37.6249C39.0391 103.435 40.1919 104.57 40.1919 105.963V107.8H1.52588e-05ZM8.27132 121.678V124.872H35.7116C37.1258 124.872 38.2786 126.007 38.2786 127.4V129.132H2.94726V117.454H31.9206V114.212H2.94726V109.953H34.7252C36.1394 109.953 37.2922 111.088 37.2922 112.481V121.678H8.27132Z" fill="#1CC73D"/>
<path d="M4.15943 101.154L0.986392 97.6665L12.9774 87.0884C13.8806 86.2927 15.2473 86.2927 16.1504 87.0884L28.0107 97.5612L24.8377 101.048L14.558 91.9796L4.15943 101.154Z" fill="#1CC73D"/>
<path d="M15.3542 101.154L12.1812 97.6665L24.1603 87.0884C25.0635 86.2927 26.4302 86.2927 27.3333 87.0884L39.1936 97.5612L36.0206 101.048L25.7409 91.9796L15.3423 101.154H15.3542Z" fill="#1CC73D"/>
</svg>
